<mxfile host="app.diagrams.net" modified="2023-02-14T09:57:26.890Z" agent="5.0 (Macintosh; Intel Mac OS X 10_15_7) AppleWebKit/537.36 (KHTML, like Gecko) Chrome/110.0.0.0 Safari/537.36" etag="3eMK-bIDkb6923rh1-A1" version="20.8.20" type="github">
  <diagram id="C5RBs43oDa-KdzZeNtuy" name="Page-1">
    <mxGraphModel dx="1434" dy="803" grid="1" gridSize="10" guides="1" tooltips="1" connect="1" arrows="1" fold="1" page="1" pageScale="1" pageWidth="827" pageHeight="1169" math="0" shadow="0">
      <root>
        <mxCell id="WIyWlLk6GJQsqaUBKTNV-0" />
        <mxCell id="WIyWlLk6GJQsqaUBKTNV-1" parent="WIyWlLk6GJQsqaUBKTNV-0" />
        <mxCell id="-XcrnTmkCNGZz-PgQPyB-13" style="edgeStyle=orthogonalEdgeStyle;rounded=0;orthogonalLoop=1;jettySize=auto;html=1;exitX=0.5;exitY=1;exitDx=0;exitDy=0;entryX=0.5;entryY=0;entryDx=0;entryDy=0;" edge="1" parent="WIyWlLk6GJQsqaUBKTNV-1" source="-XcrnTmkCNGZz-PgQPyB-0" target="-XcrnTmkCNGZz-PgQPyB-1">
          <mxGeometry relative="1" as="geometry" />
        </mxCell>
        <mxCell id="-XcrnTmkCNGZz-PgQPyB-0" value="시작" style="ellipse;whiteSpace=wrap;html=1;" vertex="1" parent="WIyWlLk6GJQsqaUBKTNV-1">
          <mxGeometry x="160" y="50" width="80" height="40" as="geometry" />
        </mxCell>
        <mxCell id="-XcrnTmkCNGZz-PgQPyB-12" style="edgeStyle=orthogonalEdgeStyle;rounded=0;orthogonalLoop=1;jettySize=auto;html=1;exitX=0.5;exitY=1;exitDx=0;exitDy=0;entryX=0.5;entryY=0;entryDx=0;entryDy=0;" edge="1" parent="WIyWlLk6GJQsqaUBKTNV-1" source="-XcrnTmkCNGZz-PgQPyB-1" target="-XcrnTmkCNGZz-PgQPyB-2">
          <mxGeometry relative="1" as="geometry" />
        </mxCell>
        <mxCell id="-XcrnTmkCNGZz-PgQPyB-1" value="로그인 버튼 비활성화" style="shape=hexagon;perimeter=hexagonPerimeter2;whiteSpace=wrap;html=1;fixedSize=1;" vertex="1" parent="WIyWlLk6GJQsqaUBKTNV-1">
          <mxGeometry x="130" y="130" width="140" height="60" as="geometry" />
        </mxCell>
        <mxCell id="-XcrnTmkCNGZz-PgQPyB-11" style="edgeStyle=orthogonalEdgeStyle;rounded=0;orthogonalLoop=1;jettySize=auto;html=1;exitX=0.5;exitY=1;exitDx=0;exitDy=0;entryX=0.5;entryY=0;entryDx=0;entryDy=0;" edge="1" parent="WIyWlLk6GJQsqaUBKTNV-1" source="-XcrnTmkCNGZz-PgQPyB-2" target="-XcrnTmkCNGZz-PgQPyB-3">
          <mxGeometry relative="1" as="geometry" />
        </mxCell>
        <mxCell id="-XcrnTmkCNGZz-PgQPyB-2" value="이메일 비밀번호 입력" style="shape=parallelogram;perimeter=parallelogramPerimeter;whiteSpace=wrap;html=1;fixedSize=1;" vertex="1" parent="WIyWlLk6GJQsqaUBKTNV-1">
          <mxGeometry x="121" y="240" width="158" height="50" as="geometry" />
        </mxCell>
        <mxCell id="-XcrnTmkCNGZz-PgQPyB-9" style="edgeStyle=orthogonalEdgeStyle;rounded=0;orthogonalLoop=1;jettySize=auto;html=1;exitX=0.5;exitY=1;exitDx=0;exitDy=0;entryX=0.5;entryY=0;entryDx=0;entryDy=0;" edge="1" parent="WIyWlLk6GJQsqaUBKTNV-1" source="-XcrnTmkCNGZz-PgQPyB-3" target="-XcrnTmkCNGZz-PgQPyB-4">
          <mxGeometry relative="1" as="geometry" />
        </mxCell>
        <mxCell id="-XcrnTmkCNGZz-PgQPyB-3" value="이메일 값이&lt;br&gt;공백이 아니면서 @를 포함하는지 확인" style="rhombus;whiteSpace=wrap;html=1;" vertex="1" parent="WIyWlLk6GJQsqaUBKTNV-1">
          <mxGeometry x="115.5" y="330" width="169" height="80" as="geometry" />
        </mxCell>
        <mxCell id="-XcrnTmkCNGZz-PgQPyB-10" style="edgeStyle=orthogonalEdgeStyle;rounded=0;orthogonalLoop=1;jettySize=auto;html=1;exitX=0.5;exitY=1;exitDx=0;exitDy=0;entryX=0.5;entryY=0;entryDx=0;entryDy=0;" edge="1" parent="WIyWlLk6GJQsqaUBKTNV-1" source="-XcrnTmkCNGZz-PgQPyB-4" target="-XcrnTmkCNGZz-PgQPyB-6">
          <mxGeometry relative="1" as="geometry" />
        </mxCell>
        <mxCell id="-XcrnTmkCNGZz-PgQPyB-4" value="비밀번호 값이&lt;br&gt;공백이 아니면서 8자리 이상인지&lt;br&gt;확인" style="rhombus;whiteSpace=wrap;html=1;" vertex="1" parent="WIyWlLk6GJQsqaUBKTNV-1">
          <mxGeometry x="115.5" y="460" width="169" height="80" as="geometry" />
        </mxCell>
        <mxCell id="-XcrnTmkCNGZz-PgQPyB-14" style="edgeStyle=orthogonalEdgeStyle;rounded=0;orthogonalLoop=1;jettySize=auto;html=1;exitX=0.5;exitY=1;exitDx=0;exitDy=0;entryX=0.5;entryY=0;entryDx=0;entryDy=0;" edge="1" parent="WIyWlLk6GJQsqaUBKTNV-1" source="-XcrnTmkCNGZz-PgQPyB-6" target="-XcrnTmkCNGZz-PgQPyB-7">
          <mxGeometry relative="1" as="geometry" />
        </mxCell>
        <mxCell id="-XcrnTmkCNGZz-PgQPyB-6" value="로그인 버튼 활성화" style="shape=process;whiteSpace=wrap;html=1;backgroundOutline=1;" vertex="1" parent="WIyWlLk6GJQsqaUBKTNV-1">
          <mxGeometry x="140" y="585" width="120" height="60" as="geometry" />
        </mxCell>
        <mxCell id="-XcrnTmkCNGZz-PgQPyB-7" value="종료" style="ellipse;whiteSpace=wrap;html=1;" vertex="1" parent="WIyWlLk6GJQsqaUBKTNV-1">
          <mxGeometry x="160" y="680" width="80" height="40" as="geometry" />
        </mxCell>
        <mxCell id="-XcrnTmkCNGZz-PgQPyB-17" value="예" style="text;html=1;strokeColor=none;fillColor=none;align=center;verticalAlign=middle;whiteSpace=wrap;rounded=0;" vertex="1" parent="WIyWlLk6GJQsqaUBKTNV-1">
          <mxGeometry x="191" y="540" width="60" height="30" as="geometry" />
        </mxCell>
        <mxCell id="-XcrnTmkCNGZz-PgQPyB-18" value="예" style="text;html=1;strokeColor=none;fillColor=none;align=center;verticalAlign=middle;whiteSpace=wrap;rounded=0;" vertex="1" parent="WIyWlLk6GJQsqaUBKTNV-1">
          <mxGeometry x="191" y="410" width="60" height="30" as="geometry" />
        </mxCell>
        <mxCell id="-XcrnTmkCNGZz-PgQPyB-20" value="" style="endArrow=classic;html=1;rounded=0;exitX=1;exitY=0.5;exitDx=0;exitDy=0;entryX=1;entryY=0.75;entryDx=0;entryDy=0;" edge="1" parent="WIyWlLk6GJQsqaUBKTNV-1" source="-XcrnTmkCNGZz-PgQPyB-3" target="-XcrnTmkCNGZz-PgQPyB-2">
          <mxGeometry width="50" height="50" relative="1" as="geometry">
            <mxPoint x="390" y="450" as="sourcePoint" />
            <mxPoint x="440" y="400" as="targetPoint" />
            <Array as="points">
              <mxPoint x="320" y="370" />
              <mxPoint x="320" y="275" />
            </Array>
          </mxGeometry>
        </mxCell>
        <mxCell id="-XcrnTmkCNGZz-PgQPyB-21" value="" style="endArrow=classic;html=1;rounded=0;entryX=1;entryY=0.25;entryDx=0;entryDy=0;exitX=1;exitY=0.5;exitDx=0;exitDy=0;" edge="1" parent="WIyWlLk6GJQsqaUBKTNV-1" source="-XcrnTmkCNGZz-PgQPyB-4" target="-XcrnTmkCNGZz-PgQPyB-2">
          <mxGeometry width="50" height="50" relative="1" as="geometry">
            <mxPoint x="290" y="500" as="sourcePoint" />
            <mxPoint x="400" y="240" as="targetPoint" />
            <Array as="points">
              <mxPoint x="350" y="500" />
              <mxPoint x="350" y="253" />
            </Array>
          </mxGeometry>
        </mxCell>
        <mxCell id="-XcrnTmkCNGZz-PgQPyB-22" value="아니요" style="text;html=1;strokeColor=none;fillColor=none;align=center;verticalAlign=middle;whiteSpace=wrap;rounded=0;" vertex="1" parent="WIyWlLk6GJQsqaUBKTNV-1">
          <mxGeometry x="350" y="355" width="60" height="30" as="geometry" />
        </mxCell>
        <mxCell id="-XcrnTmkCNGZz-PgQPyB-23" value="아니요" style="text;html=1;strokeColor=none;fillColor=none;align=center;verticalAlign=middle;whiteSpace=wrap;rounded=0;" vertex="1" parent="WIyWlLk6GJQsqaUBKTNV-1">
          <mxGeometry x="270" y="310" width="60" height="30" as="geometry" />
        </mxCell>
      </root>
    </mxGraphModel>
  </diagram>
</mxfile>
